<svg width="75" height="63" viewBox="0 0 75 63" fill="none" xmlns="http://www.w3.org/2000/svg">
<path d="M33.7461 1.89874C28.8406 4.81249 17.1812 11.4725 14.693 12.7906C8.36562 16.1206 2.10937 20.2137 1.39843 21.4625C-0.236723 24.4456 2.60703 28.4 6.375 28.4C7.37031 28.4 10.8539 26.8044 14.1953 24.8619C17.5367 22.85 21.6602 20.4912 23.4375 19.5894C25.2148 18.6181 28.9117 16.4675 31.6844 14.8025C34.457 13.1375 37.2297 11.75 37.8695 11.75C39.007 11.75 49.0313 17.3 60.4063 24.2375C66.3781 27.845 69.7195 28.8856 72.1367 27.845C74.3406 26.8737 75.5492 24.0987 74.6961 21.9481C74.0563 20.3525 67.3023 16.0512 57.5625 10.8481C55.4297 9.73812 53.1547 8.41999 52.5859 7.93437C51.6617 7.17124 48.3914 5.36749 41.2109 1.55187C38.7938 0.303119 36.3055 0.441869 33.7461 1.89874Z" fill="#193E83"/>
<path d="M32.182 20.6994C29.3383 22.1562 26.6367 23.6825 26.1391 24.0294C25.6414 24.4456 23.0109 25.9025 20.2383 27.3594C9.71641 32.9094 8.36562 34.1581 9.07656 37.5575C9.28984 38.6675 10.2141 38.8062 15.9016 38.8062C24.5039 38.8062 24.8594 39.1531 24.8594 47.27C24.8594 51.2937 24.575 53.4444 23.9352 53.93C23.4375 54.3462 19.8117 54.8319 15.9727 54.9012L8.86328 55.1094L9.14766 58.2312C9.21875 59.9656 9.71641 61.5612 10.143 61.8387C10.6406 62.1162 15.2617 62.3937 20.4516 62.3937H29.8359V52.6812C29.8359 41.2344 29.6227 41.5812 38.225 41.5812C46.1164 41.5812 46.1875 41.72 46.1875 53.2362V62.3937H55.7141C64.8141 62.3937 65.3828 62.3244 66.3781 60.8675C67.018 60.035 67.5156 58.3006 67.5156 57.0519V54.7625H60.0508C51.2352 54.7625 51.1641 54.6931 51.1641 46.7844C51.1641 38.8756 51.2352 38.8062 60.0508 38.8062H67.5156V36.4475C67.5156 33.95 66.6625 33.3256 54.0078 26.4575C51.875 25.3475 47.5383 22.9194 44.4102 21.185C41.282 19.4506 38.4383 17.9937 38.0117 17.9937C37.6563 17.9937 34.9547 19.2425 32.182 20.6994ZM44.3391 31.5912C45.6898 32.0769 45.832 34.7131 44.6234 35.8925C43.4859 37.0025 31.8266 37.0025 30.6891 35.8925C30.1914 35.4069 29.8359 34.5744 29.8359 33.95C29.8359 31.7994 31.4711 31.175 37.3719 31.175C40.5711 31.175 43.6992 31.3831 44.3391 31.5912Z" fill="#193E83"/>
<path d="M9.21875 46.7844V49.2125H14.1953H19.1719V46.7844V44.3562H14.1953H9.21875V46.7844Z" fill="#193E83"/>
<path d="M56.8516 46.7844V49.2125H62.1836H67.5156V46.7844V44.3562H62.1836H56.8516V46.7844Z" fill="#193E83"/>
<path d="M35.6656 54.5544L35.8789 62.0469L38.225 62.255L40.5 62.4631V54.8319V47.1312H38.0117H35.4523L35.6656 54.5544Z" fill="#193E83"/>
</svg>
