<?xml version="1.0" standalone="no"?>
<!DOCTYPE svg PUBLIC "-//W3C//DTD SVG 20010904//EN"
 "http://www.w3.org/TR/2001/REC-SVG-20010904/DTD/svg10.dtd">
<svg version="1.0" xmlns="http://www.w3.org/2000/svg"
 width="128px" height="128px" viewBox="0 0 236.000000 250.000000"
 preserveAspectRatio="xMidYMid meet">

<g transform="translate(0.000000,250.000000) scale(0.100000,-0.100000)"
fill="#213e8f" stroke="none">
<path d="M1135 2431 c-76 -21 -223 -109 -334 -200 -25 -20 -64 -49 -87 -66
-150 -106 -314 -244 -314 -265 0 -22 41 -50 86 -57 58 -9 132 28 324 162 284
199 331 227 378 227 40 -1 268 -103 312 -140 20 -17 23 -24 14 -39 -6 -10 -19
-19 -28 -21 -9 -2 -73 24 -143 57 -77 37 -138 61 -159 61 -73 0 -101 -90 -46
-150 15 -17 103 -68 207 -121 99 -50 214 -110 255 -132 l75 -42 163 -3 162 -4
0 220 0 220 -63 4 c-68 4 -109 22 -342 148 -228 124 -271 142 -355 146 -41 2
-88 -1 -105 -5z"/>
<path d="M2093 2203 c-10 -3 -13 -69 -13 -278 0 -150 3 -280 6 -289 5 -13 23
-16 98 -16 58 0 96 4 104 12 17 17 17 549 0 566 -12 12 -169 16 -195 5z"/>
<path d="M1085 1742 c-69 -42 -233 -138 -268 -157 -145 -78 -197 -122 -197
-166 0 -21 50 -59 77 -59 16 0 65 22 113 51 47 29 105 63 130 76 25 14 77 45
116 69 39 24 78 44 87 44 16 0 157 -80 317 -180 84 -52 131 -67 165 -52 31 14
48 54 36 85 -9 23 -104 85 -241 160 -30 16 -62 35 -70 42 -13 11 -59 37 -160
92 -34 18 -69 16 -105 -5z"/>
<path d="M1105 1494 c-16 -9 -59 -33 -95 -54 -36 -20 -92 -52 -125 -70 -123
-67 -143 -83 -147 -118 -2 -18 -2 -35 1 -37 2 -3 46 -5 96 -5 119 0 125 -5
125 -121 0 -53 -5 -90 -12 -97 -8 -8 -47 -12 -110 -12 -86 0 -98 -2 -99 -17
-4 -47 1 -77 13 -84 7 -5 73 -9 146 -9 l132 0 0 140 c0 165 -4 160 119 160 74
0 82 -2 96 -24 9 -13 15 -28 14 -32 -1 -5 -1 -62 0 -126 l1 -118 134 0 c128 0
136 1 150 22 9 12 16 37 16 55 l0 33 -105 0 c-93 0 -105 2 -115 19 -14 28 -13
184 2 199 8 8 48 12 115 12 l102 0 -1 35 c-1 37 -13 46 -188 143 -30 16 -91
51 -135 76 -44 25 -84 46 -90 46 -5 -1 -23 -8 -40 -16z m139 -196 c8 -13 8
-23 0 -35 -9 -15 -28 -19 -99 -21 -90 -3 -115 5 -115 37 0 34 22 42 114 39 72
-2 91 -6 100 -20z"/>
<path d="M740 1095 l0 -35 70 0 70 0 0 35 0 35 -70 0 -70 0 0 -35z"/>
<path d="M1410 1095 l0 -35 75 0 75 0 0 35 0 35 -75 0 -75 0 0 -35z"/>
<path d="M1112 983 l3 -108 33 -3 32 -3 0 110 0 111 -35 0 -36 0 3 -107z"/>
<path d="M76 854 c-24 -23 -24 -545 0 -568 19 -20 173 -23 192 -4 17 17 17
559 0 576 -19 19 -173 16 -192 -4z"/>
<path d="M360 576 l0 -226 59 0 c47 0 71 -6 117 -31 33 -17 104 -55 159 -84
55 -29 127 -68 160 -86 141 -81 195 -99 287 -99 117 0 167 24 394 185 86 62
340 259 387 301 44 40 46 55 11 83 -34 27 -104 27 -161 1 -42 -19 -183 -106
-193 -119 -3 -4 -32 -25 -65 -47 -33 -23 -112 -76 -175 -120 -153 -105 -162
-105 -352 -10 -136 67 -156 85 -136 120 13 23 37 20 94 -10 147 -79 183 -94
222 -94 78 0 113 66 70 129 -24 36 -64 59 -428 243 l-165 83 -142 3 -143 4 0
-226z"/>
</g>
</svg>
