<svg xmlns="http://www.w3.org/2000/svg" version="1.1" xmlns:xlink="http://www.w3.org/1999/xlink" width="32" height="32" x="0" y="0" viewBox="0 0 24 24" style="enable-background:new 0 0 512 512" xml:space="preserve" class=""><g><g data-name="Layer 2"><path d="M12 16.75A4.75 4.75 0 1 1 16.75 12 4.756 4.756 0 0 1 12 16.75Zm0-8A3.25 3.25 0 1 0 15.25 12 3.254 3.254 0 0 0 12 8.75Z" fill="#000000" opacity="1" data-original="#000000" class=""></path><path d="M12.367 22.75h-.734a2.386 2.386 0 0 1-2.383-2.383.9.9 0 0 0-.558-.815 8.23 8.23 0 0 1-1.523-.871.894.894 0 0 0-.979-.07l-.331.191A2.388 2.388 0 0 1 2.6 17.93l-.437-.758a2.383 2.383 0 0 1 .872-3.255l.328-.189a.9.9 0 0 0 .428-.895A7.84 7.84 0 0 1 3.75 12a7.712 7.712 0 0 1 .046-.837.9.9 0 0 0-.429-.891l-.328-.189a2.383 2.383 0 0 1-.872-3.255L2.6 6.07a2.389 2.389 0 0 1 3.259-.87l.331.191a.894.894 0 0 0 .98-.071 8.242 8.242 0 0 1 1.522-.87.9.9 0 0 0 .558-.815 2.386 2.386 0 0 1 2.383-2.385h.734a2.386 2.386 0 0 1 2.383 2.383.9.9 0 0 0 .558.815 8.23 8.23 0 0 1 1.523.871.89.89 0 0 0 .979.07l.331-.191a2.388 2.388 0 0 1 3.259.872l.437.758a2.383 2.383 0 0 1-.872 3.255l-.328.189a.9.9 0 0 0-.428.895 7.84 7.84 0 0 1 .041.833 7.712 7.712 0 0 1-.046.837.9.9 0 0 0 .429.891l.328.189a2.383 2.383 0 0 1 .872 3.255l-.437.758a2.387 2.387 0 0 1-3.255.872l-.331-.191a.9.9 0 0 0-.98.071 8.242 8.242 0 0 1-1.522.87.9.9 0 0 0-.558.815 2.386 2.386 0 0 1-2.383 2.383ZM6.615 17a2.45 2.45 0 0 1 1.434.467 6.752 6.752 0 0 0 1.245.712 2.4 2.4 0 0 1 1.456 2.189.884.884 0 0 0 .883.883h.734a.884.884 0 0 0 .883-.883 2.4 2.4 0 0 1 1.456-2.189 6.711 6.711 0 0 0 1.244-.712 2.409 2.409 0 0 1 2.61-.154l.331.19a.883.883 0 0 0 1.206-.323l.437-.757a.883.883 0 0 0-.323-1.206l-.328-.19a2.41 2.41 0 0 1-1.17-2.351A6.054 6.054 0 0 0 18.75 12a6.206 6.206 0 0 0-.036-.672 2.41 2.41 0 0 1 1.169-2.354l.328-.19a.883.883 0 0 0 .323-1.205L20.1 6.82a.884.884 0 0 0-1.209-.32l-.331.191a2.406 2.406 0 0 1-2.609-.154 6.752 6.752 0 0 0-1.245-.712 2.4 2.4 0 0 1-1.456-2.192.884.884 0 0 0-.883-.883h-.734a.884.884 0 0 0-.883.883 2.4 2.4 0 0 1-1.456 2.189 6.711 6.711 0 0 0-1.244.712 2.409 2.409 0 0 1-2.61.154L5.109 6.5a.882.882 0 0 0-1.209.321l-.437.757a.883.883 0 0 0 .323 1.206l.328.19a2.41 2.41 0 0 1 1.17 2.351A6.054 6.054 0 0 0 5.25 12a6.206 6.206 0 0 0 .036.672 2.41 2.41 0 0 1-1.169 2.354l-.328.19a.883.883 0 0 0-.323 1.205l.437.759a.885.885 0 0 0 1.206.323l.331-.191A2.351 2.351 0 0 1 6.615 17Z" fill="#000000" opacity="1" data-original="#000000" class=""></path></g></g></svg>